<mxfile host="app.diagrams.net" modified="2023-09-19T02:47:32.707Z" agent="Mozilla/5.0 (Windows NT 10.0; Win64; x64; rv:109.0) Gecko/20100101 Firefox/117.0" etag="mtfW1uCnhavnKcSpEWB-" version="21.6.6" type="google">
  <diagram name="Page-1" id="3U8pYr8K5-ne4N_T_PAh">
    <mxGraphModel grid="1" page="1" gridSize="10" guides="1" tooltips="1" connect="1" arrows="1" fold="1" pageScale="1" pageWidth="850" pageHeight="1100" math="0" shadow="0">
      <root>
        <mxCell id="0" />
        <mxCell id="1" parent="0" />
        <mxCell id="_hvaLRWHQCabzB9ZTh0j-25" value="" style="group" connectable="0" vertex="1" parent="1">
          <mxGeometry x="370" y="140" width="200" height="130" as="geometry" />
        </mxCell>
        <mxCell id="_hvaLRWHQCabzB9ZTh0j-26" value="" style="rounded=0;whiteSpace=wrap;html=1;" vertex="1" parent="_hvaLRWHQCabzB9ZTh0j-25">
          <mxGeometry width="200" height="130" as="geometry" />
        </mxCell>
        <mxCell id="_hvaLRWHQCabzB9ZTh0j-27" value="Early Start" style="rounded=0;whiteSpace=wrap;html=1;" vertex="1" parent="_hvaLRWHQCabzB9ZTh0j-25">
          <mxGeometry width="50" height="48.75" as="geometry" />
        </mxCell>
        <mxCell id="_hvaLRWHQCabzB9ZTh0j-28" value="Late Start" style="rounded=0;whiteSpace=wrap;html=1;" vertex="1" parent="_hvaLRWHQCabzB9ZTh0j-25">
          <mxGeometry y="81.25" width="50" height="48.75" as="geometry" />
        </mxCell>
        <mxCell id="_hvaLRWHQCabzB9ZTh0j-29" value="Early Finish" style="rounded=0;whiteSpace=wrap;html=1;" vertex="1" parent="_hvaLRWHQCabzB9ZTh0j-25">
          <mxGeometry x="150" width="50" height="48.75" as="geometry" />
        </mxCell>
        <mxCell id="_hvaLRWHQCabzB9ZTh0j-30" value="Late Finish" style="rounded=0;whiteSpace=wrap;html=1;" vertex="1" parent="_hvaLRWHQCabzB9ZTh0j-25">
          <mxGeometry x="150" y="81.25" width="50" height="48.75" as="geometry" />
        </mxCell>
        <mxCell id="_hvaLRWHQCabzB9ZTh0j-31" value="Duration" style="rounded=0;whiteSpace=wrap;html=1;" vertex="1" parent="_hvaLRWHQCabzB9ZTh0j-25">
          <mxGeometry x="50" width="100" height="48.75" as="geometry" />
        </mxCell>
        <mxCell id="_hvaLRWHQCabzB9ZTh0j-32" value="Slack" style="rounded=0;whiteSpace=wrap;html=1;" vertex="1" parent="_hvaLRWHQCabzB9ZTh0j-25">
          <mxGeometry x="50" y="81.25" width="100" height="48.75" as="geometry" />
        </mxCell>
        <mxCell id="_hvaLRWHQCabzB9ZTh0j-33" value="" style="group" connectable="0" vertex="1" parent="1">
          <mxGeometry x="10" y="220" width="200" height="130" as="geometry" />
        </mxCell>
        <mxCell id="_hvaLRWHQCabzB9ZTh0j-34" value="Activity A" style="rounded=0;whiteSpace=wrap;html=1;" vertex="1" parent="_hvaLRWHQCabzB9ZTh0j-33">
          <mxGeometry width="200" height="130" as="geometry" />
        </mxCell>
        <mxCell id="_hvaLRWHQCabzB9ZTh0j-35" value="0" style="rounded=0;whiteSpace=wrap;html=1;" vertex="1" parent="_hvaLRWHQCabzB9ZTh0j-33">
          <mxGeometry width="50" height="48.75" as="geometry" />
        </mxCell>
        <mxCell id="_hvaLRWHQCabzB9ZTh0j-36" value="6" style="rounded=0;whiteSpace=wrap;html=1;" vertex="1" parent="_hvaLRWHQCabzB9ZTh0j-33">
          <mxGeometry y="81.25" width="50" height="48.75" as="geometry" />
        </mxCell>
        <mxCell id="_hvaLRWHQCabzB9ZTh0j-37" value="4" style="rounded=0;whiteSpace=wrap;html=1;" vertex="1" parent="_hvaLRWHQCabzB9ZTh0j-33">
          <mxGeometry x="150" width="50" height="48.75" as="geometry" />
        </mxCell>
        <mxCell id="_hvaLRWHQCabzB9ZTh0j-38" value="10" style="rounded=0;whiteSpace=wrap;html=1;" vertex="1" parent="_hvaLRWHQCabzB9ZTh0j-33">
          <mxGeometry x="150" y="81.25" width="50" height="48.75" as="geometry" />
        </mxCell>
        <mxCell id="_hvaLRWHQCabzB9ZTh0j-39" value="4" style="rounded=0;whiteSpace=wrap;html=1;" vertex="1" parent="_hvaLRWHQCabzB9ZTh0j-33">
          <mxGeometry x="50" width="100" height="48.75" as="geometry" />
        </mxCell>
        <mxCell id="_hvaLRWHQCabzB9ZTh0j-40" value="6" style="rounded=0;whiteSpace=wrap;html=1;" vertex="1" parent="_hvaLRWHQCabzB9ZTh0j-33">
          <mxGeometry x="50" y="81.25" width="100" height="48.75" as="geometry" />
        </mxCell>
        <mxCell id="_hvaLRWHQCabzB9ZTh0j-41" value="" style="group" connectable="0" vertex="1" parent="1">
          <mxGeometry x="10" y="400" width="200" height="130" as="geometry" />
        </mxCell>
        <mxCell id="_hvaLRWHQCabzB9ZTh0j-42" value="Activity B" style="rounded=0;whiteSpace=wrap;html=1;" vertex="1" parent="_hvaLRWHQCabzB9ZTh0j-41">
          <mxGeometry width="200" height="130" as="geometry" />
        </mxCell>
        <mxCell id="_hvaLRWHQCabzB9ZTh0j-43" value="0" style="rounded=0;whiteSpace=wrap;html=1;" vertex="1" parent="_hvaLRWHQCabzB9ZTh0j-41">
          <mxGeometry width="50" height="48.75" as="geometry" />
        </mxCell>
        <mxCell id="_hvaLRWHQCabzB9ZTh0j-44" value="0" style="rounded=0;whiteSpace=wrap;html=1;" vertex="1" parent="_hvaLRWHQCabzB9ZTh0j-41">
          <mxGeometry y="81.25" width="50" height="48.75" as="geometry" />
        </mxCell>
        <mxCell id="_hvaLRWHQCabzB9ZTh0j-45" value="6" style="rounded=0;whiteSpace=wrap;html=1;" vertex="1" parent="_hvaLRWHQCabzB9ZTh0j-41">
          <mxGeometry x="150" width="50" height="48.75" as="geometry" />
        </mxCell>
        <mxCell id="_hvaLRWHQCabzB9ZTh0j-46" value="6" style="rounded=0;whiteSpace=wrap;html=1;" vertex="1" parent="_hvaLRWHQCabzB9ZTh0j-41">
          <mxGeometry x="150" y="81.25" width="50" height="48.75" as="geometry" />
        </mxCell>
        <mxCell id="_hvaLRWHQCabzB9ZTh0j-47" value="6" style="rounded=0;whiteSpace=wrap;html=1;" vertex="1" parent="_hvaLRWHQCabzB9ZTh0j-41">
          <mxGeometry x="50" width="100" height="48.75" as="geometry" />
        </mxCell>
        <mxCell id="_hvaLRWHQCabzB9ZTh0j-48" value="0" style="rounded=0;whiteSpace=wrap;html=1;" vertex="1" parent="_hvaLRWHQCabzB9ZTh0j-41">
          <mxGeometry x="50" y="81.25" width="100" height="48.75" as="geometry" />
        </mxCell>
        <mxCell id="_hvaLRWHQCabzB9ZTh0j-49" value="" style="group" connectable="0" vertex="1" parent="1">
          <mxGeometry x="270" y="320" width="200" height="130" as="geometry" />
        </mxCell>
        <mxCell id="_hvaLRWHQCabzB9ZTh0j-50" value="Activity C" style="rounded=0;whiteSpace=wrap;html=1;" vertex="1" parent="_hvaLRWHQCabzB9ZTh0j-49">
          <mxGeometry width="200" height="130" as="geometry" />
        </mxCell>
        <mxCell id="_hvaLRWHQCabzB9ZTh0j-51" value="6" style="rounded=0;whiteSpace=wrap;html=1;" vertex="1" parent="_hvaLRWHQCabzB9ZTh0j-49">
          <mxGeometry width="50" height="48.75" as="geometry" />
        </mxCell>
        <mxCell id="_hvaLRWHQCabzB9ZTh0j-52" value="10" style="rounded=0;whiteSpace=wrap;html=1;" vertex="1" parent="_hvaLRWHQCabzB9ZTh0j-49">
          <mxGeometry y="81.25" width="50" height="48.75" as="geometry" />
        </mxCell>
        <mxCell id="_hvaLRWHQCabzB9ZTh0j-53" value="13" style="rounded=0;whiteSpace=wrap;html=1;" vertex="1" parent="_hvaLRWHQCabzB9ZTh0j-49">
          <mxGeometry x="150" width="50" height="48.75" as="geometry" />
        </mxCell>
        <mxCell id="_hvaLRWHQCabzB9ZTh0j-54" value="17" style="rounded=0;whiteSpace=wrap;html=1;" vertex="1" parent="_hvaLRWHQCabzB9ZTh0j-49">
          <mxGeometry x="150" y="81.25" width="50" height="48.75" as="geometry" />
        </mxCell>
        <mxCell id="_hvaLRWHQCabzB9ZTh0j-55" value="7" style="rounded=0;whiteSpace=wrap;html=1;" vertex="1" parent="_hvaLRWHQCabzB9ZTh0j-49">
          <mxGeometry x="50" width="100" height="48.75" as="geometry" />
        </mxCell>
        <mxCell id="_hvaLRWHQCabzB9ZTh0j-56" value="4" style="rounded=0;whiteSpace=wrap;html=1;" vertex="1" parent="_hvaLRWHQCabzB9ZTh0j-49">
          <mxGeometry x="50" y="81.25" width="100" height="48.75" as="geometry" />
        </mxCell>
        <mxCell id="_hvaLRWHQCabzB9ZTh0j-57" style="edgeStyle=orthogonalEdgeStyle;rounded=0;orthogonalLoop=1;jettySize=auto;html=1;entryX=0;entryY=0.25;entryDx=0;entryDy=0;" edge="1" parent="1" source="_hvaLRWHQCabzB9ZTh0j-34" target="_hvaLRWHQCabzB9ZTh0j-50">
          <mxGeometry relative="1" as="geometry" />
        </mxCell>
        <mxCell id="_hvaLRWHQCabzB9ZTh0j-58" style="edgeStyle=orthogonalEdgeStyle;rounded=0;orthogonalLoop=1;jettySize=auto;html=1;entryX=0;entryY=0;entryDx=0;entryDy=0;" edge="1" parent="1" source="_hvaLRWHQCabzB9ZTh0j-42" target="_hvaLRWHQCabzB9ZTh0j-52">
          <mxGeometry relative="1" as="geometry">
            <Array as="points">
              <mxPoint x="240" y="465" />
              <mxPoint x="240" y="401" />
              <mxPoint x="250" y="401" />
            </Array>
          </mxGeometry>
        </mxCell>
        <mxCell id="_hvaLRWHQCabzB9ZTh0j-59" value="" style="group" connectable="0" vertex="1" parent="1">
          <mxGeometry x="270" y="490" width="200" height="130" as="geometry" />
        </mxCell>
        <mxCell id="_hvaLRWHQCabzB9ZTh0j-60" value="Activity D" style="rounded=0;whiteSpace=wrap;html=1;" vertex="1" parent="_hvaLRWHQCabzB9ZTh0j-59">
          <mxGeometry width="200" height="130" as="geometry" />
        </mxCell>
        <mxCell id="_hvaLRWHQCabzB9ZTh0j-61" value="6" style="rounded=0;whiteSpace=wrap;html=1;" vertex="1" parent="_hvaLRWHQCabzB9ZTh0j-59">
          <mxGeometry width="50" height="48.75" as="geometry" />
        </mxCell>
        <mxCell id="_hvaLRWHQCabzB9ZTh0j-62" value="6" style="rounded=0;whiteSpace=wrap;html=1;" vertex="1" parent="_hvaLRWHQCabzB9ZTh0j-59">
          <mxGeometry y="81.25" width="50" height="48.75" as="geometry" />
        </mxCell>
        <mxCell id="_hvaLRWHQCabzB9ZTh0j-63" value="14" style="rounded=0;whiteSpace=wrap;html=1;" vertex="1" parent="_hvaLRWHQCabzB9ZTh0j-59">
          <mxGeometry x="150" width="50" height="48.75" as="geometry" />
        </mxCell>
        <mxCell id="_hvaLRWHQCabzB9ZTh0j-64" value="14" style="rounded=0;whiteSpace=wrap;html=1;" vertex="1" parent="_hvaLRWHQCabzB9ZTh0j-59">
          <mxGeometry x="150" y="81.25" width="50" height="48.75" as="geometry" />
        </mxCell>
        <mxCell id="_hvaLRWHQCabzB9ZTh0j-65" value="8" style="rounded=0;whiteSpace=wrap;html=1;" vertex="1" parent="_hvaLRWHQCabzB9ZTh0j-59">
          <mxGeometry x="50" width="100" height="48.75" as="geometry" />
        </mxCell>
        <mxCell id="_hvaLRWHQCabzB9ZTh0j-66" value="0" style="rounded=0;whiteSpace=wrap;html=1;" vertex="1" parent="_hvaLRWHQCabzB9ZTh0j-59">
          <mxGeometry x="50" y="81.25" width="100" height="48.75" as="geometry" />
        </mxCell>
        <mxCell id="_hvaLRWHQCabzB9ZTh0j-67" style="edgeStyle=orthogonalEdgeStyle;rounded=0;orthogonalLoop=1;jettySize=auto;html=1;entryX=0;entryY=0.5;entryDx=0;entryDy=0;" edge="1" parent="1" source="_hvaLRWHQCabzB9ZTh0j-42" target="_hvaLRWHQCabzB9ZTh0j-60">
          <mxGeometry relative="1" as="geometry" />
        </mxCell>
        <mxCell id="_hvaLRWHQCabzB9ZTh0j-68" value="" style="group" connectable="0" vertex="1" parent="1">
          <mxGeometry x="270" y="660" width="200" height="130" as="geometry" />
        </mxCell>
        <mxCell id="_hvaLRWHQCabzB9ZTh0j-106" style="edgeStyle=orthogonalEdgeStyle;rounded=0;orthogonalLoop=1;jettySize=auto;html=1;" edge="1" parent="_hvaLRWHQCabzB9ZTh0j-68" source="_hvaLRWHQCabzB9ZTh0j-69">
          <mxGeometry relative="1" as="geometry">
            <mxPoint x="240" y="65" as="targetPoint" />
          </mxGeometry>
        </mxCell>
        <mxCell id="_hvaLRWHQCabzB9ZTh0j-69" value="Activity E" style="rounded=0;whiteSpace=wrap;html=1;" vertex="1" parent="_hvaLRWHQCabzB9ZTh0j-68">
          <mxGeometry width="200" height="130" as="geometry" />
        </mxCell>
        <mxCell id="_hvaLRWHQCabzB9ZTh0j-70" value="6" style="rounded=0;whiteSpace=wrap;html=1;" vertex="1" parent="_hvaLRWHQCabzB9ZTh0j-68">
          <mxGeometry width="50" height="48.75" as="geometry" />
        </mxCell>
        <mxCell id="_hvaLRWHQCabzB9ZTh0j-71" value="9" style="rounded=0;whiteSpace=wrap;html=1;" vertex="1" parent="_hvaLRWHQCabzB9ZTh0j-68">
          <mxGeometry y="81.25" width="50" height="48.75" as="geometry" />
        </mxCell>
        <mxCell id="_hvaLRWHQCabzB9ZTh0j-72" value="11" style="rounded=0;whiteSpace=wrap;html=1;" vertex="1" parent="_hvaLRWHQCabzB9ZTh0j-68">
          <mxGeometry x="150" width="50" height="48.75" as="geometry" />
        </mxCell>
        <mxCell id="_hvaLRWHQCabzB9ZTh0j-73" value="14" style="rounded=0;whiteSpace=wrap;html=1;" vertex="1" parent="_hvaLRWHQCabzB9ZTh0j-68">
          <mxGeometry x="150" y="81.25" width="50" height="48.75" as="geometry" />
        </mxCell>
        <mxCell id="_hvaLRWHQCabzB9ZTh0j-74" value="5" style="rounded=0;whiteSpace=wrap;html=1;" vertex="1" parent="_hvaLRWHQCabzB9ZTh0j-68">
          <mxGeometry x="50" width="100" height="48.75" as="geometry" />
        </mxCell>
        <mxCell id="_hvaLRWHQCabzB9ZTh0j-75" value="3" style="rounded=0;whiteSpace=wrap;html=1;" vertex="1" parent="_hvaLRWHQCabzB9ZTh0j-68">
          <mxGeometry x="50" y="81.25" width="100" height="48.75" as="geometry" />
        </mxCell>
        <mxCell id="_hvaLRWHQCabzB9ZTh0j-76" style="edgeStyle=orthogonalEdgeStyle;rounded=0;orthogonalLoop=1;jettySize=auto;html=1;entryX=0;entryY=0.5;entryDx=0;entryDy=0;" edge="1" parent="1" source="_hvaLRWHQCabzB9ZTh0j-42" target="_hvaLRWHQCabzB9ZTh0j-69">
          <mxGeometry relative="1" as="geometry" />
        </mxCell>
        <mxCell id="_hvaLRWHQCabzB9ZTh0j-77" value="" style="group" connectable="0" vertex="1" parent="1">
          <mxGeometry x="510" y="320" width="200" height="130" as="geometry" />
        </mxCell>
        <mxCell id="_hvaLRWHQCabzB9ZTh0j-78" value="Activity F" style="rounded=0;whiteSpace=wrap;html=1;" vertex="1" parent="_hvaLRWHQCabzB9ZTh0j-77">
          <mxGeometry width="200" height="130" as="geometry" />
        </mxCell>
        <mxCell id="_hvaLRWHQCabzB9ZTh0j-79" value="13" style="rounded=0;whiteSpace=wrap;html=1;" vertex="1" parent="_hvaLRWHQCabzB9ZTh0j-77">
          <mxGeometry width="50" height="48.75" as="geometry" />
        </mxCell>
        <mxCell id="_hvaLRWHQCabzB9ZTh0j-80" value="17" style="rounded=0;whiteSpace=wrap;html=1;" vertex="1" parent="_hvaLRWHQCabzB9ZTh0j-77">
          <mxGeometry y="81.25" width="50" height="48.75" as="geometry" />
        </mxCell>
        <mxCell id="_hvaLRWHQCabzB9ZTh0j-81" value="18" style="rounded=0;whiteSpace=wrap;html=1;" vertex="1" parent="_hvaLRWHQCabzB9ZTh0j-77">
          <mxGeometry x="150" width="50" height="48.75" as="geometry" />
        </mxCell>
        <mxCell id="_hvaLRWHQCabzB9ZTh0j-82" value="22" style="rounded=0;whiteSpace=wrap;html=1;" vertex="1" parent="_hvaLRWHQCabzB9ZTh0j-77">
          <mxGeometry x="150" y="81.25" width="50" height="48.75" as="geometry" />
        </mxCell>
        <mxCell id="_hvaLRWHQCabzB9ZTh0j-83" value="5" style="rounded=0;whiteSpace=wrap;html=1;" vertex="1" parent="_hvaLRWHQCabzB9ZTh0j-77">
          <mxGeometry x="50" width="100" height="48.75" as="geometry" />
        </mxCell>
        <mxCell id="_hvaLRWHQCabzB9ZTh0j-84" value="4" style="rounded=0;whiteSpace=wrap;html=1;" vertex="1" parent="_hvaLRWHQCabzB9ZTh0j-77">
          <mxGeometry x="50" y="81.25" width="100" height="48.75" as="geometry" />
        </mxCell>
        <mxCell id="_hvaLRWHQCabzB9ZTh0j-87" style="edgeStyle=orthogonalEdgeStyle;rounded=0;orthogonalLoop=1;jettySize=auto;html=1;entryX=0;entryY=0.5;entryDx=0;entryDy=0;" edge="1" parent="1" source="_hvaLRWHQCabzB9ZTh0j-50" target="_hvaLRWHQCabzB9ZTh0j-78">
          <mxGeometry relative="1" as="geometry" />
        </mxCell>
        <mxCell id="_hvaLRWHQCabzB9ZTh0j-88" value="" style="group" connectable="0" vertex="1" parent="1">
          <mxGeometry x="510" y="490" width="200" height="130" as="geometry" />
        </mxCell>
        <mxCell id="_hvaLRWHQCabzB9ZTh0j-89" value="Activity G" style="rounded=0;whiteSpace=wrap;html=1;" vertex="1" parent="_hvaLRWHQCabzB9ZTh0j-88">
          <mxGeometry width="200" height="130" as="geometry" />
        </mxCell>
        <mxCell id="_hvaLRWHQCabzB9ZTh0j-90" value="14" style="rounded=0;whiteSpace=wrap;html=1;" vertex="1" parent="_hvaLRWHQCabzB9ZTh0j-88">
          <mxGeometry width="50" height="48.75" as="geometry" />
        </mxCell>
        <mxCell id="_hvaLRWHQCabzB9ZTh0j-91" value="15" style="rounded=0;whiteSpace=wrap;html=1;" vertex="1" parent="_hvaLRWHQCabzB9ZTh0j-88">
          <mxGeometry y="81.25" width="50" height="48.75" as="geometry" />
        </mxCell>
        <mxCell id="_hvaLRWHQCabzB9ZTh0j-92" value="21" style="rounded=0;whiteSpace=wrap;html=1;" vertex="1" parent="_hvaLRWHQCabzB9ZTh0j-88">
          <mxGeometry x="150" width="50" height="48.75" as="geometry" />
        </mxCell>
        <mxCell id="_hvaLRWHQCabzB9ZTh0j-93" value="22" style="rounded=0;whiteSpace=wrap;html=1;" vertex="1" parent="_hvaLRWHQCabzB9ZTh0j-88">
          <mxGeometry x="150" y="81.25" width="50" height="48.75" as="geometry" />
        </mxCell>
        <mxCell id="_hvaLRWHQCabzB9ZTh0j-94" value="7" style="rounded=0;whiteSpace=wrap;html=1;" vertex="1" parent="_hvaLRWHQCabzB9ZTh0j-88">
          <mxGeometry x="50" width="100" height="48.75" as="geometry" />
        </mxCell>
        <mxCell id="_hvaLRWHQCabzB9ZTh0j-95" value="1" style="rounded=0;whiteSpace=wrap;html=1;" vertex="1" parent="_hvaLRWHQCabzB9ZTh0j-88">
          <mxGeometry x="50" y="81.25" width="100" height="48.75" as="geometry" />
        </mxCell>
        <mxCell id="_hvaLRWHQCabzB9ZTh0j-96" style="edgeStyle=orthogonalEdgeStyle;rounded=0;orthogonalLoop=1;jettySize=auto;html=1;entryX=0;entryY=0.5;entryDx=0;entryDy=0;" edge="1" parent="1" source="_hvaLRWHQCabzB9ZTh0j-60" target="_hvaLRWHQCabzB9ZTh0j-89">
          <mxGeometry relative="1" as="geometry" />
        </mxCell>
        <mxCell id="_hvaLRWHQCabzB9ZTh0j-97" value="" style="group" connectable="0" vertex="1" parent="1">
          <mxGeometry x="510" y="660" width="200" height="130" as="geometry" />
        </mxCell>
        <mxCell id="_hvaLRWHQCabzB9ZTh0j-98" value="Activity H" style="rounded=0;whiteSpace=wrap;html=1;" vertex="1" parent="_hvaLRWHQCabzB9ZTh0j-97">
          <mxGeometry width="200" height="130" as="geometry" />
        </mxCell>
        <mxCell id="_hvaLRWHQCabzB9ZTh0j-99" value="14" style="rounded=0;whiteSpace=wrap;html=1;" vertex="1" parent="_hvaLRWHQCabzB9ZTh0j-97">
          <mxGeometry width="50" height="48.75" as="geometry" />
        </mxCell>
        <mxCell id="_hvaLRWHQCabzB9ZTh0j-100" value="14" style="rounded=0;whiteSpace=wrap;html=1;" vertex="1" parent="_hvaLRWHQCabzB9ZTh0j-97">
          <mxGeometry y="81.25" width="50" height="48.75" as="geometry" />
        </mxCell>
        <mxCell id="_hvaLRWHQCabzB9ZTh0j-101" value="22" style="rounded=0;whiteSpace=wrap;html=1;" vertex="1" parent="_hvaLRWHQCabzB9ZTh0j-97">
          <mxGeometry x="150" width="50" height="48.75" as="geometry" />
        </mxCell>
        <mxCell id="_hvaLRWHQCabzB9ZTh0j-102" value="22" style="rounded=0;whiteSpace=wrap;html=1;" vertex="1" parent="_hvaLRWHQCabzB9ZTh0j-97">
          <mxGeometry x="150" y="81.25" width="50" height="48.75" as="geometry" />
        </mxCell>
        <mxCell id="_hvaLRWHQCabzB9ZTh0j-103" value="8" style="rounded=0;whiteSpace=wrap;html=1;" vertex="1" parent="_hvaLRWHQCabzB9ZTh0j-97">
          <mxGeometry x="50" width="100" height="48.75" as="geometry" />
        </mxCell>
        <mxCell id="_hvaLRWHQCabzB9ZTh0j-104" value="0" style="rounded=0;whiteSpace=wrap;html=1;" vertex="1" parent="_hvaLRWHQCabzB9ZTh0j-97">
          <mxGeometry x="50" y="81.25" width="100" height="48.75" as="geometry" />
        </mxCell>
        <mxCell id="_hvaLRWHQCabzB9ZTh0j-105" style="edgeStyle=orthogonalEdgeStyle;rounded=0;orthogonalLoop=1;jettySize=auto;html=1;entryX=0.005;entryY=0.354;entryDx=0;entryDy=0;entryPerimeter=0;" edge="1" parent="1" source="_hvaLRWHQCabzB9ZTh0j-60" target="_hvaLRWHQCabzB9ZTh0j-98">
          <mxGeometry relative="1" as="geometry" />
        </mxCell>
        <mxCell id="_hvaLRWHQCabzB9ZTh0j-107" value="" style="group" connectable="0" vertex="1" parent="1">
          <mxGeometry x="760" y="490" width="200" height="130" as="geometry" />
        </mxCell>
        <mxCell id="_hvaLRWHQCabzB9ZTh0j-108" value="Activity I" style="rounded=0;whiteSpace=wrap;html=1;" vertex="1" parent="_hvaLRWHQCabzB9ZTh0j-107">
          <mxGeometry width="200" height="130" as="geometry" />
        </mxCell>
        <mxCell id="_hvaLRWHQCabzB9ZTh0j-109" value="22" style="rounded=0;whiteSpace=wrap;html=1;" vertex="1" parent="_hvaLRWHQCabzB9ZTh0j-107">
          <mxGeometry width="50" height="48.75" as="geometry" />
        </mxCell>
        <mxCell id="_hvaLRWHQCabzB9ZTh0j-110" value="22" style="rounded=0;whiteSpace=wrap;html=1;" vertex="1" parent="_hvaLRWHQCabzB9ZTh0j-107">
          <mxGeometry y="81.25" width="50" height="48.75" as="geometry" />
        </mxCell>
        <mxCell id="_hvaLRWHQCabzB9ZTh0j-111" value="26" style="rounded=0;whiteSpace=wrap;html=1;" vertex="1" parent="_hvaLRWHQCabzB9ZTh0j-107">
          <mxGeometry x="150" width="50" height="48.75" as="geometry" />
        </mxCell>
        <mxCell id="_hvaLRWHQCabzB9ZTh0j-112" value="26" style="rounded=0;whiteSpace=wrap;html=1;" vertex="1" parent="_hvaLRWHQCabzB9ZTh0j-107">
          <mxGeometry x="150" y="81.25" width="50" height="48.75" as="geometry" />
        </mxCell>
        <mxCell id="_hvaLRWHQCabzB9ZTh0j-113" value="4" style="rounded=0;whiteSpace=wrap;html=1;" vertex="1" parent="_hvaLRWHQCabzB9ZTh0j-107">
          <mxGeometry x="50" width="100" height="48.75" as="geometry" />
        </mxCell>
        <mxCell id="_hvaLRWHQCabzB9ZTh0j-114" value="0" style="rounded=0;whiteSpace=wrap;html=1;" vertex="1" parent="_hvaLRWHQCabzB9ZTh0j-107">
          <mxGeometry x="50" y="81.25" width="100" height="48.75" as="geometry" />
        </mxCell>
        <mxCell id="_hvaLRWHQCabzB9ZTh0j-115" style="edgeStyle=orthogonalEdgeStyle;rounded=0;orthogonalLoop=1;jettySize=auto;html=1;entryX=0;entryY=0.5;entryDx=0;entryDy=0;" edge="1" parent="1" source="_hvaLRWHQCabzB9ZTh0j-78" target="_hvaLRWHQCabzB9ZTh0j-108">
          <mxGeometry relative="1" as="geometry" />
        </mxCell>
        <mxCell id="_hvaLRWHQCabzB9ZTh0j-116" style="edgeStyle=orthogonalEdgeStyle;rounded=0;orthogonalLoop=1;jettySize=auto;html=1;entryX=0;entryY=0.5;entryDx=0;entryDy=0;" edge="1" parent="1" source="_hvaLRWHQCabzB9ZTh0j-89" target="_hvaLRWHQCabzB9ZTh0j-108">
          <mxGeometry relative="1" as="geometry" />
        </mxCell>
        <mxCell id="_hvaLRWHQCabzB9ZTh0j-117" style="edgeStyle=orthogonalEdgeStyle;rounded=0;orthogonalLoop=1;jettySize=auto;html=1;entryX=0;entryY=0.5;entryDx=0;entryDy=0;" edge="1" parent="1" source="_hvaLRWHQCabzB9ZTh0j-98" target="_hvaLRWHQCabzB9ZTh0j-108">
          <mxGeometry relative="1" as="geometry" />
        </mxCell>
      </root>
    </mxGraphModel>
  </diagram>
</mxfile>
